<?xml version="1.0" encoding="UTF-8" standalone="no"?>
<!-- Created with Inkscape (http://www.inkscape.org/) -->

<svg
   xmlns:dc="http://purl.org/dc/elements/1.1/"
   xmlns:cc="http://creativecommons.org/ns#"
   xmlns:rdf="http://www.w3.org/1999/02/22-rdf-syntax-ns#"
   xmlns:svg="http://www.w3.org/2000/svg"
   xmlns="http://www.w3.org/2000/svg"
   xmlns:sodipodi="http://sodipodi.sourceforge.net/DTD/sodipodi-0.dtd"
   xmlns:inkscape="http://www.inkscape.org/namespaces/inkscape"
   width="25"
   height="25"
   viewBox="0 0 6.6145832 6.6145835"
   version="1.1"
   id="svg8"
   inkscape:version="0.92.2 (5c3e80d, 2017-08-06)"
   sodipodi:docname="chave.svg"
   inkscape:export-filename="C:\Users\ander\Desktop\Jogasso\chave.png"
   inkscape:export-xdpi="96"
   inkscape:export-ydpi="96">
  <defs
     id="defs2" />
  <sodipodi:namedview
     id="base"
     pagecolor="#ffffff"
     bordercolor="#666666"
     borderopacity="1.0"
     inkscape:pageopacity="0.0"
     inkscape:pageshadow="2"
     inkscape:zoom="22.4"
     inkscape:cx="3.5202079"
     inkscape:cy="14.072568"
     inkscape:document-units="mm"
     inkscape:current-layer="layer1"
     showgrid="false"
     units="px"
     inkscape:window-width="1366"
     inkscape:window-height="705"
     inkscape:window-x="-8"
     inkscape:window-y="-8"
     inkscape:window-maximized="1" />
  <metadata
     id="metadata5">
    <rdf:RDF>
      <cc:Work
         rdf:about="">
        <dc:format>image/svg+xml</dc:format>
        <dc:type
           rdf:resource="http://purl.org/dc/dcmitype/StillImage" />
        <dc:title />
      </cc:Work>
    </rdf:RDF>
  </metadata>
  <g
     inkscape:label="Camada 1"
     inkscape:groupmode="layer"
     id="layer1"
     transform="translate(0,-290.3854)">
    <path
       style="fill:none;stroke:#000000;stroke-width:0.27707544px;stroke-linecap:butt;stroke-linejoin:miter;stroke-opacity:1"
       d="m 2.7721895,293.85935 0.3216057,-0.0495 0.1484332,-0.25976 0.5318859,0.37109 0.2968664,-0.30924 0.3958221,0.23503 0.3216054,-0.2474 0.2844972,0.29687 0.1484332,-0.25975 0.3834527,0.27211 0.4576694,-0.29686 -0.4081918,-0.59373 -2.8944486,0.0371 -0.6061025,-0.59373 -0.7792747,-0.0619 -0.66794988,0.27213 -0.3339748,0.60611 0.0371085,0.55661 0.35871372,0.5319 0.59373306,0.24738 0.618472,-0.0743 0.4947776,-0.33397 z"
       id="path826"
       inkscape:connector-curvature="0" />
    <ellipse
       style="opacity:1;fill:#000000;fill-opacity:1;fill-rule:nonzero;stroke:#000006;stroke-width:0.26458332;stroke-linecap:butt;stroke-linejoin:round;stroke-miterlimit:4;stroke-dasharray:none;stroke-opacity:1;paint-order:fill markers stroke"
       id="path828"
       cx="1.6004928"
       cy="293.50372"
       rx="0.30119976"
       ry="0.23623511" />
    <path
       style="opacity:1;fill:#d40000;fill-opacity:1;fill-rule:nonzero;stroke:#000006;stroke-width:0.04464286;stroke-linecap:butt;stroke-linejoin:round;stroke-miterlimit:4;stroke-dasharray:none;stroke-opacity:1;paint-order:fill markers stroke"
       d="M 4.2255424,15.00757 3.2612337,14.603164 2.6727432,13.726523 2.0842527,12.849883 2.0217436,11.957854 1.9592344,11.065825 2.4978844,10.083682 C 2.7941419,9.5435034 3.0414788,9.0955999 3.047522,9.0883408 3.0535653,9.0810817 3.5481062,8.8729459 4.1465018,8.6258169 l 1.0879922,-0.4493256 0.78125,0.051231 c 0.4296875,0.028177 1.0323661,0.073698 1.3392857,0.1011567 l 0.5580357,0.049926 1.1412232,1.1317131 1.1412234,1.1317129 4.952527,-0.06682 c 2.723889,-0.03675 5.17525,-0.067 5.447467,-0.06722 l 0.49494,-4.06e-4 0.525565,0.762977 c 0.289061,0.419637 0.508303,0.77735 0.487203,0.794919 -0.0211,0.01757 -0.233156,0.158316 -0.471236,0.312772 l -0.432874,0.280829 -0.768005,-0.546108 c -0.422403,-0.30036 -0.798919,-0.548397 -0.836703,-0.551195 -0.0411,-0.003 -0.146616,0.129403 -0.262681,0.329735 -0.106692,0.184151 -0.21275,0.364955 -0.235684,0.401785 -0.03324,0.05338 -0.128761,-0.02585 -0.470944,-0.390625 -0.236084,-0.251674 -0.447424,-0.457589 -0.469644,-0.457589 -0.02222,0 -0.306826,0.204006 -0.63246,0.453347 -0.325633,0.249341 -0.613278,0.469551 -0.639211,0.489356 -0.02762,0.02109 -0.354221,-0.148195 -0.788489,-0.408704 -0.407736,-0.244592 -0.760352,-0.444713 -0.783593,-0.444713 -0.02324,0 -0.285083,0.24953 -0.581874,0.554511 l -0.53962,0.554511 -1.060583,-0.73935 c -0.583321,-0.406642 -1.067088,-0.721463 -1.075037,-0.6996 -0.0079,0.02186 -0.170425,0.310829 -0.361058,0.642149 l -0.346604,0.602399 -0.578532,0.08526 -0.578531,0.08526 -0.580357,0.686338 -0.5803572,0.686339 -0.8717785,0.592969 -0.8717786,0.59297 -1.0032213,0.120358 C 5.7305865,15.364885 5.2590475,15.417452 5.234494,15.415507 5.20994,15.413607 4.7559122,15.229987 4.2255424,15.007564 Z M 6.6509672,13.094382 C 7.3905109,12.851408 7.8153587,12.207428 7.6758578,11.540864 7.4397739,10.412807 5.8139487,9.9875256 4.8597988,10.804242 c -0.29037,0.248546 -0.4168951,0.503937 -0.4417826,0.891737 -0.026184,0.407994 0.060064,0.663529 0.3186325,0.944042 0.4610867,0.50022 1.2237634,0.68124 1.9143185,0.454361 z"
       id="path830"
       inkscape:connector-curvature="0"
       transform="matrix(0.26458333,0,0,0.26458333,0,290.3854)" />
    <path
       style="opacity:1;fill:#f2f2f2;fill-opacity:1;fill-rule:nonzero;stroke:#000006;stroke-width:0.04464286;stroke-linecap:butt;stroke-linejoin:round;stroke-miterlimit:4;stroke-dasharray:none;stroke-opacity:1;paint-order:fill markers stroke"
       d="M 4.631815,15.133161 C 4.3126186,15.001852 3.8842136,14.82651 3.6798038,14.743514 L 3.3081499,14.592611 2.7131405,13.714679 2.1181312,12.836748 2.0611642,11.947789 2.0041971,11.058831 2.5452873,10.080185 3.0863775,9.1015391 4.1492748,8.6655499 c 0.7591152,-0.311381 1.1153918,-0.435783 1.246569,-0.4352678 0.1010195,3.967e-4 0.703698,0.041583 1.3392859,0.091525 l 1.1556139,0.090804 1.1384522,1.1366178 1.1384522,1.1366171 2.857084,-0.0423 c 1.571395,-0.02327 4.023811,-0.05613 5.449812,-0.07302 l 2.592728,-0.03072 0.34376,0.497176 c 0.189068,0.273446 0.412678,0.611582 0.496911,0.751412 l 0.15315,0.254237 -0.427103,0.285612 -0.427102,0.285612 -0.30885,-0.215979 c -0.894762,-0.625706 -1.256741,-0.8633 -1.315253,-0.8633 -0.03567,0 -0.142924,0.125558 -0.238351,0.279018 -0.32404,0.521096 -0.252294,0.51907 -0.738043,0.02084 -0.385571,-0.395477 -0.434775,-0.431949 -0.520705,-0.38596 -0.05219,0.02793 -0.344415,0.240572 -0.649381,0.472531 -0.391882,0.298068 -0.578537,0.414109 -0.636509,0.395709 -0.04511,-0.01432 -0.37269,-0.192898 -0.727948,-0.396842 -0.355257,-0.203945 -0.681133,-0.384321 -0.72417,-0.400836 -0.05965,-0.02289 -0.207071,0.101786 -0.62027,0.524576 l -0.542022,0.554602 -0.3125,-0.222635 c -0.596889,-0.425245 -1.758773,-1.198147 -1.801142,-1.198147 -0.02344,0 -0.200312,0.27906 -0.393056,0.620133 l -0.350444,0.620133 -0.572757,0.07869 -0.572756,0.07869 -0.5813164,0.684417 C 8.9938829,13.974766 8.9713864,13.993952 7.8684221,14.737492 L 7.2657436,15.143776 6.2917758,15.258818 C 5.7560935,15.322091 5.2940399,15.373421 5.26499,15.372883 5.2359402,15.372345 4.9510114,15.264471 4.631815,15.133161 Z M 6.4488141,13.181508 C 6.9980177,13.066603 7.5212239,12.644702 7.6700034,12.196768 7.8218119,11.739716 7.6755547,11.172882 7.3166186,10.82719 7.1012253,10.619744 6.7056779,10.433758 6.3535769,10.374369 5.7717567,10.276232 5.1686715,10.457039 4.7713815,10.848717 4.469282,11.14655 4.4086007,11.306075 4.4086007,11.802432 c 0,0.478512 0.038573,0.582262 0.3269668,0.879432 0.4368235,0.450116 1.0689032,0.634453 1.7132466,0.499644 z"
       id="path815"
       inkscape:connector-curvature="0"
       transform="matrix(0.26458333,0,0,0.26458333,0,290.3854)" />
  </g>
</svg>
